<svg xmlns="http://www.w3.org/2000/svg" width="113.057" height="113.057" viewBox="0 0 113.057 113.057">
  <path id="Icon_awesome-user-circle" data-name="Icon awesome-user-circle" d="M56.528.563a56.528,56.528,0,1,0,56.528,56.528A56.519,56.519,0,0,0,56.528.563Zm0,21.882A20.058,20.058,0,1,1,36.47,42.5,20.059,20.059,0,0,1,56.528,22.444Zm0,78.41A43.679,43.679,0,0,1,23.136,85.309,25.414,25.414,0,0,1,45.587,71.679a5.577,5.577,0,0,1,1.618.251A30.179,30.179,0,0,0,56.528,73.5a30.065,30.065,0,0,0,9.323-1.573,5.577,5.577,0,0,1,1.618-.251A25.414,25.414,0,0,1,89.921,85.309,43.679,43.679,0,0,1,56.528,100.855Z" transform="translate(0 -0.563)" fill="#ccc"/>
</svg>
