<svg xmlns="http://www.w3.org/2000/svg" width="67.799" height="84.229" viewBox="0 0 67.799 84.229">
  <g id="Grupo_1142" data-name="Grupo 1142" transform="translate(-163.201 -282.771)">
    <path id="_3F" data-name="3F" d="M33.117,77.457c-10.575,0-22.18-.1-22.891-.117-.1.006-.213.01-.323.01a8.73,8.73,0,0,1-5.758-2.458,11.658,11.658,0,0,1-2.626-3.671A18.05,18.05,0,0,1,.013,65.391,2.5,2.5,0,0,1,0,65.138V33.184a2.531,2.531,0,0,1,2.528-2.528H8.384V18.724A20.578,20.578,0,0,1,12.67,6.916a17.338,17.338,0,0,1,6.148-4.908A22.264,22.264,0,0,1,28.5,0C44.043,0,48.449,11.8,48.607,18.033l0,12.623h6a2.531,2.531,0,0,1,2.527,2.528V66.048c0,3.76-2.07,10.954-9.9,11.275C44.84,77.412,40.089,77.457,33.117,77.457ZM5.056,35.712V65c.755,7.077,4.7,7.281,5.15,7.281.189.009,12.16.118,22.915.118,6.946,0,11.627-.046,13.913-.136,4.91-.2,5.052-5.6,5.052-6.219V35.712ZM28.5,5.056a16.433,16.433,0,0,0-8.491,2.066,12.555,12.555,0,0,0-4.49,4.588,16.136,16.136,0,0,0-2.077,7.082l0,11.864H43.552V18.1a14.8,14.8,0,0,0-2.222-7,12.169,12.169,0,0,0-4.5-4.188A17.365,17.365,0,0,0,28.5,5.056ZM28.6,60.6a2.531,2.531,0,0,1-2.528-2.528v-3a5.15,5.15,0,1,1,5.056-.016v3.016A2.531,2.531,0,0,1,28.6,60.6Z" transform="translate(163.201 282.771)" fill="#2757df"/>
    <circle id="Elipse_93" data-name="Elipse 93" cx="16" cy="16" r="16" transform="translate(199 335)" fill="#fff"/>
    <g id="Icon_feather-check-circle" data-name="Icon feather-check-circle" transform="translate(202 338.233)">
      <path id="Trazado_1585" data-name="Trazado 1585" d="M22,11.08V12a10,10,0,1,1-5.93-9.14" fill="none" stroke="#2757df" stroke-linecap="round" stroke-linejoin="round" stroke-width="2"/>
      <path id="Trazado_1586" data-name="Trazado 1586" d="M22,4,12,14.01l-3-3" fill="none" stroke="#2757df" stroke-linecap="round" stroke-linejoin="round" stroke-width="2"/>
    </g>
  </g>
</svg>
