<svg id="Icon_ionic-ios-hammer" data-name="Icon ionic-ios-hammer" xmlns="http://www.w3.org/2000/svg" width="20.964" height="19.359" viewBox="0 0 20.964 19.359">
  <path id="Trazado_1603" data-name="Trazado 1603" d="M14.389,14.22a1.242,1.242,0,0,0-.207-.277l-.928-.918a1.1,1.1,0,0,0-.333-.232,1.06,1.06,0,0,0-1.18.217c-.323.318-.913.9-1.976,1.951-2.037,2.017-4.946,4.517-6.655,5.959a.815.815,0,0,0-.055,1.195l1.976,2a.817.817,0,0,0,1.2-.045c1.482-1.744,4.008-4.653,6.02-6.645,1.034-1.018,1.613-1.6,1.941-1.926A1.105,1.105,0,0,0,14.389,14.22Z" transform="translate(-2.822 -4.999)"/>
  <path id="Trazado_1604" data-name="Trazado 1604" d="M24.771,11.519,23.032,9.795a.278.278,0,0,0-.2-.081.286.286,0,0,0-.2.081h0a.578.578,0,0,1-.484.166,1.078,1.078,0,0,1-.625-.247c-.353-.348.055-1.034-.257-1.472a12.3,12.3,0,0,0-1.17-1.356,12.856,12.856,0,0,0-4.134-2.667,6.274,6.274,0,0,0-2.385-.469,4.555,4.555,0,0,0-2.763.771c-.277.257-.565.711-.156.711a1.17,1.17,0,0,0,.121-.01,8.479,8.479,0,0,1,1.18-.076,3.96,3.96,0,0,1,2.249.509,3.72,3.72,0,0,1,1.558,2.682,2.88,2.88,0,0,1-.943,2.294.4.4,0,0,0,.02.55l.968.968a.4.4,0,0,0,.565.005A3.971,3.971,0,0,1,17.95,11.01a2.461,2.461,0,0,1,.645-.081,2.853,2.853,0,0,1,1.19.232.687.687,0,0,1,.156.121.857.857,0,0,1-.025,1.2l-.1.1a.28.28,0,0,0,0,.4l1.739,1.724a.278.278,0,0,0,.2.081.286.286,0,0,0,.2-.081l2.813-2.783A.3.3,0,0,0,24.771,11.519Z" transform="translate(-3.887 -3.75)"/>
</svg>
