<svg xmlns="http://www.w3.org/2000/svg" width="22.02" height="22.009" viewBox="0 0 22.02 22.009">
  <path id="Icon_material-healing" data-name="Icon material-healing" d="M19.765,13.5l4.37-4.37a1.093,1.093,0,0,0,0-1.548L19.369,2.818a1.093,1.093,0,0,0-1.548,0l-4.37,4.37-4.37-4.37A1.125,1.125,0,0,0,8.3,2.5a1.1,1.1,0,0,0-.769.318L2.768,7.583a1.093,1.093,0,0,0,0,1.548l4.37,4.37-4.37,4.37a1.093,1.093,0,0,0,0,1.548l4.765,4.765a1.093,1.093,0,0,0,1.548,0l4.37-4.37,4.37,4.37a1.078,1.078,0,0,0,.78.318,1.125,1.125,0,0,0,.78-.318l4.765-4.765a1.093,1.093,0,0,0,0-1.548L19.765,13.5Zm-6.291-3.316a1.1,1.1,0,1,1-1.1,1.1A1.1,1.1,0,0,1,13.473,10.185ZM8.3,12.337,4.316,8.363,8.3,4.377l3.975,3.975L8.3,12.337Zm2.976,2.24a1.1,1.1,0,1,1,1.1-1.1A1.1,1.1,0,0,1,11.277,14.577Zm2.2,2.2a1.1,1.1,0,1,1,1.1-1.1A1.1,1.1,0,0,1,13.473,16.773Zm2.2-4.392a1.1,1.1,0,1,1-1.1,1.1A1.1,1.1,0,0,1,15.669,12.381ZM18.59,22.636,14.6,18.662l3.986-3.986,3.975,3.975Z" transform="translate(-2.447 -2.497)"/>
</svg>
