<svg xmlns="http://www.w3.org/2000/svg" width="21.338" height="23.276" viewBox="0 0 21.338 23.276">
  <path id="Icon_awesome-warehouse" data-name="Icon awesome-warehouse" d="M16.8,16H4.548c-.147,0-.267.164-.267.364l0,2.182c0,.2.12.364.267.364H16.8c.147,0,.267-.164.267-.364V16.367C17.07,16.167,16.95,16,16.8,16Zm0,4.365H4.538c-.147,0-.267.164-.267.364l0,2.182c0,.2.12.364.267.364H16.8c.147,0,.267-.164.267-.364V20.732C17.07,20.532,16.95,20.368,16.8,20.368Zm0-8.729H4.554c-.147,0-.267.164-.267.364l0,2.182c0,.2.12.364.267.364H16.8c.147,0,.267-.164.267-.364V12C17.07,11.8,16.95,11.639,16.8,11.639ZM20.354,5.32,11.282.169a1.216,1.216,0,0,0-1.23,0L.984,5.32A2.307,2.307,0,0,0,0,7.334v15.58c0,.2.12.364.267.364H2.934c.147,0,.267-.164.267-.364V11.639c0-.8.487-1.455,1.087-1.455H17.05c.6,0,1.087.655,1.087,1.455V22.914c0,.2.12.364.267.364h2.667c.147,0,.267-.164.267-.364V7.334A2.307,2.307,0,0,0,20.354,5.32Z" transform="translate(0 -0.001)"/>
</svg>
