<svg xmlns="http://www.w3.org/2000/svg" width="24.898" height="24.898" viewBox="0 0 24.898 24.898">
  <path id="Icon_ionic-md-football" data-name="Icon ionic-md-football" d="M15.824,3.375A12.449,12.449,0,1,0,28.273,15.824,12.462,12.462,0,0,0,15.824,3.375ZM8.1,14.759l2.346,1.071,1.023,4-.934,1.754-3.423-.042A10.453,10.453,0,0,1,5.47,17.039Zm13.006,6.829-.934-1.754,1.023-4.01,2.34-1.065,2.633,2.28a10.377,10.377,0,0,1-1.646,4.507Zm1.939-8.75L20.438,14.01l-3.657-3.088V8.1l2.867-1.951a10.672,10.672,0,0,1,4.525,3.459Zm-11.1-6.685L14.806,8.1v2.825L11.156,14,8.582,12.831,7.463,9.623A10.365,10.365,0,0,1,11.952,6.152ZM13.574,26c-.042-.012-.078-.018-.12-.03l-1.227-3.3.88-1.76h5.434l.9,1.813-1.185,3.226c-.06.012-.12.03-.18.042a15.089,15.089,0,0,1-2.418.245A10.149,10.149,0,0,1,13.574,26Z" transform="translate(-3.375 -3.375)"/>
</svg>
