<svg xmlns="http://www.w3.org/2000/svg" width="103" height="100" viewBox="0 0 103 100">
  <g id="Grupo_1205" data-name="Grupo 1205" transform="translate(-139 -272)">
    <g id="Grupo_1204" data-name="Grupo 1204">
      <circle id="Elipse_117" data-name="Elipse 117" cx="39" cy="39" r="39" transform="translate(153 284)" fill="#2757df"/>
      <circle id="Elipse_118" data-name="Elipse 118" cx="21" cy="21" r="21" transform="translate(171 302)" fill="#fff"/>
      <path id="Icon_awesome-user-circle" data-name="Icon awesome-user-circle" d="M28.651.563A28.651,28.651,0,1,0,57.3,29.213,28.646,28.646,0,0,0,28.651.563Zm0,11.091A10.166,10.166,0,1,1,18.484,21.819,10.167,10.167,0,0,1,28.651,11.653Zm0,39.741a22.138,22.138,0,0,1-16.925-7.879,12.881,12.881,0,0,1,11.379-6.909,2.827,2.827,0,0,1,.82.127,15.3,15.3,0,0,0,4.725.8,15.238,15.238,0,0,0,4.725-.8,2.827,2.827,0,0,1,.82-.127,12.881,12.881,0,0,1,11.379,6.909A22.138,22.138,0,0,1,28.651,51.394Z" transform="translate(163 293.438)" fill="#2757df"/>
    </g>
    <circle id="Elipse_119" data-name="Elipse 119" cx="6" cy="6" r="6" transform="translate(144 272)" fill="#2757df"/>
    <circle id="Elipse_121" data-name="Elipse 121" cx="3" cy="3" r="3" transform="translate(142 343)" fill="#2757df"/>
    <circle id="Elipse_122" data-name="Elipse 122" cx="2.5" cy="2.5" r="2.5" transform="translate(171 367)" fill="#2757df"/>
    <circle id="Elipse_124" data-name="Elipse 124" cx="2" cy="2" r="2" transform="translate(229 359)" fill="#2757df"/>
    <circle id="Elipse_125" data-name="Elipse 125" cx="1.5" cy="1.5" r="1.5" transform="translate(232 332)" fill="#2757df"/>
    <circle id="Elipse_126" data-name="Elipse 126" cx="1.5" cy="1.5" r="1.5" transform="translate(197 274)" fill="#2757df"/>
    <circle id="Elipse_127" data-name="Elipse 127" cx="4" cy="4" r="4" transform="translate(234 284)" fill="#2757df"/>
    <circle id="Elipse_120" data-name="Elipse 120" cx="1" cy="1" r="1" transform="translate(139 313)" fill="#2757df"/>
    <circle id="Elipse_123" data-name="Elipse 123" cx="1" cy="1" r="1" transform="translate(206 366)" fill="#2757df"/>
  </g>
</svg>
