<svg xmlns="http://www.w3.org/2000/svg" width="22.672" height="13.603" viewBox="0 0 22.672 13.603">
  <path id="Icon_awesome-couch" data-name="Icon awesome-couch" d="M5.668,9.418v2.267H17V9.418a2.269,2.269,0,0,1,2.267-2.267H20.4A3.4,3.4,0,0,0,17,3.75H5.668a3.4,3.4,0,0,0-3.4,3.4H3.4A2.269,2.269,0,0,1,5.668,9.418ZM20.4,8.284H19.271a1.132,1.132,0,0,0-1.134,1.134v3.4H4.534v-3.4A1.132,1.132,0,0,0,3.4,8.284H2.267A2.26,2.26,0,0,0,1.134,12.5v4.283a.568.568,0,0,0,.567.567H3.968a.568.568,0,0,0,.567-.567v-.567h13.6v.567a.568.568,0,0,0,.567.567h2.267a.568.568,0,0,0,.567-.567V12.5A2.26,2.26,0,0,0,20.4,8.284Z" transform="translate(0 -3.75)"/>
</svg>
