<svg id="Icon_map-grocery-or-supermarket" data-name="Icon map-grocery-or-supermarket" xmlns="http://www.w3.org/2000/svg" width="25.026" height="20.429" viewBox="0 0 25.026 20.429">
  <path id="Trazado_1590" data-name="Trazado 1590" d="M28.086,24.843A2.043,2.043,0,1,1,26.043,22.8a2.043,2.043,0,0,1,2.043,2.043Z" transform="translate(-3.571 -6.457)"/>
  <path id="Trazado_1591" data-name="Trazado 1591" d="M10.686,24.843A2.043,2.043,0,1,1,8.643,22.8,2.043,2.043,0,0,1,10.686,24.843Z" transform="translate(-0.982 -6.457)"/>
  <path id="Trazado_1592" data-name="Trazado 1592" d="M24,17.39H8.055l.341-.553a1.022,1.022,0,0,0,.119-.793l-.332-1.28,14.8-.769A1.09,1.09,0,0,0,24,12.921V6.154a1.024,1.024,0,0,0-1.021-1.021H5.679l-.2-.768A1.021,1.021,0,0,0,4.49,3.6H1.021a1.021,1.021,0,1,0,0,2.043H3.7L6.428,16.136,5.355,17.875a1.022,1.022,0,0,0,.869,1.558H24a1.021,1.021,0,0,0,0-2.043Z" transform="translate(0 -3.6)"/>
</svg>
