<svg xmlns="http://www.w3.org/2000/svg" width="23.497" height="20.882" viewBox="0 0 23.497 20.882">
  <path id="Icon_awesome-edit" data-name="Icon awesome-edit" d="M16.423,3.4,20.1,7.076a.4.4,0,0,1,0,.563l-8.909,8.909-3.786.42a.793.793,0,0,1-.877-.877l.42-3.786L15.86,3.4A.4.4,0,0,1,16.423,3.4Zm6.608-.934L21.041.472a1.6,1.6,0,0,0-2.252,0L17.345,1.916a.4.4,0,0,0,0,.563l3.679,3.679a.4.4,0,0,0,.563,0l1.444-1.444a1.6,1.6,0,0,0,0-2.252ZM15.664,14.125v4.153H2.611V5.224h9.374a.5.5,0,0,0,.347-.143L13.963,3.45a.49.49,0,0,0-.347-.836H1.958A1.959,1.959,0,0,0,0,4.572V18.931a1.959,1.959,0,0,0,1.958,1.958H16.317a1.959,1.959,0,0,0,1.958-1.958V12.494a.49.49,0,0,0-.836-.347l-1.632,1.632A.5.5,0,0,0,15.664,14.125Z" transform="translate(0 -0.007)" fill="#fff"/>
</svg>
