<svg xmlns="http://www.w3.org/2000/svg" width="18.937" height="18.936" viewBox="0 0 18.937 18.936">
  <path id="Icon_awesome-paint-brush" data-name="Icon awesome-paint-brush" d="M6.177,11.441a3.743,3.743,0,0,0-3.595,2.674.564.564,0,0,1-.54.369c-.411,0-1.681-1.023-2.043-1.27,0,3.046,1.4,5.723,4.734,5.723,2.806,0,4.734-1.619,4.734-4.445a3.2,3.2,0,0,0-.036-.338L6.177,11.441ZM16.935,0a2.259,2.259,0,0,0-1.487.608C7.888,7.362,7.1,7.52,7.1,9.508a3.424,3.424,0,0,0,.323,1.431l2.36,1.967a3.4,3.4,0,0,0,.828.112c2.3,0,3.629-1.682,7.81-9.485a3.806,3.806,0,0,0,.514-1.7A1.926,1.926,0,0,0,16.935,0Z" transform="translate(0.001)"/>
</svg>
