<svg xmlns="http://www.w3.org/2000/svg" width="21.278" height="19.763" viewBox="0 0 21.278 19.763">
  <path id="Icon_ionic-ios-shirt" data-name="Icon ionic-ios-shirt" d="M24.119,9.808a.2.2,0,0,0-.01-.273,46.978,46.978,0,0,0-4.586-4.308A5.922,5.922,0,0,0,16.306,3.75c-1.132,0-1.132.412-2.779.412S11.88,3.75,10.748,3.75A5.922,5.922,0,0,0,7.531,5.227,46.978,46.978,0,0,0,2.945,9.535a.2.2,0,0,0-.01.273L6.11,13.1a.206.206,0,0,0,.365-.129V10.662a.476.476,0,0,1,.391-.474.463.463,0,0,1,.535.458V23.1a.413.413,0,0,0,.412.412H19.24a.413.413,0,0,0,.412-.412V10.662a.476.476,0,0,1,.391-.474.463.463,0,0,1,.535.458v2.326a.205.205,0,0,0,.365.129ZM13.527,7.816c-1.544,0-2.779-.654-2.779-1.853,0-1.544,1.235-.551,2.779-.551s2.779-.993,2.779.551C16.306,7.162,15.061,7.816,13.527,7.816Z" transform="translate(-2.888 -3.75)"/>
</svg>
