<svg xmlns="http://www.w3.org/2000/svg" width="20.284" height="21.129" viewBox="0 0 20.284 21.129">
  <path id="Icon_material-add-shopping-cart" data-name="Icon material-add-shopping-cart" d="M11.562,9.549h2.012V6.531h3.018V4.518H13.574V1.5H11.562V4.518H8.543V6.531h3.018ZM7.537,18.6a2.012,2.012,0,1,0,2.012,2.012A2.01,2.01,0,0,0,7.537,18.6Zm10.062,0a2.012,2.012,0,1,0,2.012,2.012A2.01,2.01,0,0,0,17.6,18.6Zm-9.891-3.27.03-.121.906-1.64h7.5A2,2,0,0,0,17.9,12.538l3.884-7.053-1.751-.966h-.01L18.917,6.531,16.14,11.562H9.076l-.131-.272L6.692,6.531,5.736,4.518,4.79,2.506H1.5V4.518H3.512l3.622,7.637L5.776,14.62a1.945,1.945,0,0,0-.252.966A2.018,2.018,0,0,0,7.537,17.6H19.611V15.586H7.96A.256.256,0,0,1,7.708,15.335Z" transform="translate(-1.5 -1.5)" fill="#fff"/>
</svg>
