<svg id="Icon_ionic-ios-paw" data-name="Icon ionic-ios-paw" xmlns="http://www.w3.org/2000/svg" width="20.753" height="17.556" viewBox="0 0 20.753 17.556">
  <path id="Trazado_1593" data-name="Trazado 1593" d="M18.541,4.7a1.09,1.09,0,0,0-.18-.015v0h-.02c-1.1,0-2.14,1.292-2.384,3.007-.264,1.825.469,3.441,1.631,3.611a1.343,1.343,0,0,0,.2.015c1.1,0,2.14-1.292,2.384-3.007C20.436,6.488,19.7,4.872,18.541,4.7Z" transform="translate(-4.758 -4.688)"/>
  <path id="Trazado_1594" data-name="Trazado 1594" d="M18.785,4.688Z" transform="translate(-5.187 -4.688)"/>
  <path id="Trazado_1595" data-name="Trazado 1595" d="M25.288,9.907a1.444,1.444,0,0,0-.544-.1h-.02a3.422,3.422,0,0,0-2.663,2.384c-.693,1.706-.374,3.451.718,3.9a1.444,1.444,0,0,0,.544.1,3.406,3.406,0,0,0,2.688-2.384C26.7,12.1,26.375,10.356,25.288,9.907Z" transform="translate(-5.62 -5.449)"/>
  <path id="Trazado_1596" data-name="Trazado 1596" d="M17.183,16.786c-1.387-2.175-1.985-2.993-3.571-2.993s-2.19.823-3.576,2.993C8.849,18.641,6.45,18.8,5.851,20.372a2.286,2.286,0,0,0-.18.908A2.317,2.317,0,0,0,7.986,23.6c1.586,0,3.746-1.2,5.631-1.2s4.035,1.2,5.621,1.2a2.313,2.313,0,0,0,2.309-2.319,2.289,2.289,0,0,0-.185-.908C20.764,18.791,18.37,18.641,17.183,16.786Z" transform="translate(-3.236 -6.042)"/>
  <path id="Trazado_1597" data-name="Trazado 1597" d="M11.457,11.321a1.343,1.343,0,0,0,.2-.015c1.167-.17,1.9-1.786,1.631-3.611C13.038,5.974,12,4.688,10.9,4.688a1.343,1.343,0,0,0-.2.015c-1.167.17-1.9,1.786-1.631,3.611C9.322,10.029,10.364,11.321,11.457,11.321Z" transform="translate(-3.734 -4.688)"/>
  <path id="Trazado_1598" data-name="Trazado 1598" d="M6.408,16.087c1.092-.449,1.411-2.195.718-3.9A3.406,3.406,0,0,0,4.438,9.8a1.444,1.444,0,0,0-.544.1c-1.092.449-1.411,2.195-.718,3.9a3.406,3.406,0,0,0,2.688,2.384A1.444,1.444,0,0,0,6.408,16.087Z" transform="translate(-2.81 -5.449)"/>
</svg>
