<svg id="ULy0k8.tif" xmlns="http://www.w3.org/2000/svg" width="17.429" height="15.012" viewBox="0 0 17.429 15.012">
  <g id="Grupo_97" data-name="Grupo 97" transform="translate(0 0)">
    <path id="Trazado_78" data-name="Trazado 78" d="M269.789,401.711a5.019,5.019,0,0,1,4.308-5.023,4.649,4.649,0,0,1,4.247,1.653c.135.146.192.12.307-.006a4.824,4.824,0,0,1,2.725-1.606,4.726,4.726,0,0,1,4.382,1.408,4.874,4.874,0,0,1,1.435,3.987,5.1,5.1,0,0,1-1.067,2.581,15.77,15.77,0,0,1-2.488,2.579c-1.158,1.011-4.329,3.73-4.7,4.139a.526.526,0,0,1-.848.022,34.827,34.827,0,0,0-3.565-3.164,28.558,28.558,0,0,1-2.922-2.658,7.178,7.178,0,0,1-1.561-2.438A3.7,3.7,0,0,1,269.789,401.711Zm16.319-.093c-.028-.226-.021-.462-.065-.7a3.9,3.9,0,0,0-3.46-3.155,3.815,3.815,0,0,0-3.553,1.69c-.343.475-.74.48-1.067,0a3.856,3.856,0,0,0-5.152-1.161,3.877,3.877,0,0,0-1.86,4.039,5.006,5.006,0,0,0,1.107,2.122,18.359,18.359,0,0,0,2.628,2.538c1.247,1.046,2.542,2.036,3.687,3.2.1.106.164.083.256-.009.278-.28,3.374-2.926,4.6-4.023a12.051,12.051,0,0,0,2.253-2.517A3.6,3.6,0,0,0,286.108,401.618Z" transform="translate(-269.783 -396.638)" fill="#171717"/>
  </g>
</svg>
