<svg id="Icon_ionic-ios-book" data-name="Icon ionic-ios-book" xmlns="http://www.w3.org/2000/svg" width="20.738" height="19.15" viewBox="0 0 20.738 19.15">
  <path id="Trazado_1599" data-name="Trazado 1599" d="M7.7,3.756c2.7,0,4.988,1.392,4.988,4.09v.8h0V22.8a.1.1,0,0,1-.19.035v0a4.69,4.69,0,0,0-4.1-3.516,6.331,6.331,0,0,0-4.643,1.85.538.538,0,0,1-.329.145H3.2c-.185,0-.379-.135-.379-.3V6.554C2.813,4.953,5,3.756,7.7,3.756Z" transform="translate(-2.818 -3.751)"/>
  <path id="Trazado_1600" data-name="Trazado 1600" d="M20.573,3.75c-2.7,0-4.988,1.392-4.988,4.09v.8h0V22.8a.1.1,0,0,0,.19.035v0a4.739,4.739,0,0,1,4.1-3.516,6.32,6.32,0,0,1,4.643,1.85.567.567,0,0,0,.329.145h.224c.185,0,.379-.135.379-.3V6.543C25.461,4.947,23.272,3.75,20.573,3.75Z" transform="translate(-4.718 -3.75)"/>
</svg>
