<svg xmlns="http://www.w3.org/2000/svg" width="46.784" height="29.729" viewBox="0 0 46.784 29.729">
  <g id="Grupo_1155" data-name="Grupo 1155" transform="translate(-11.216 -1089.404)">
    <g id="Grupo_1154" data-name="Grupo 1154" transform="translate(8.784 2.244)">
      <path id="Trazado_1616" data-name="Trazado 1616" d="M34.5,25.907h3.211c.247,0,.26-.154.271-.232.47-3.226,2.494-4.2,4.608-4.119,2.1.081,3.451,2.023,3.055,4.351H46.6c1.235,0,2.223-.247,2.223-1.729L48.33,7.135a1.213,1.213,0,0,0-.063-.37,1.215,1.215,0,0,0,.063-.37,1.239,1.239,0,0,0-1.235-1.235h-1.71C45.113,2.228,43.321.083,40.736,0,38.048-.081,35.343,2.1,33.988,5.159H24.865a1.235,1.235,0,1,0,0,2.47h2.5a1,1,0,0,1,.46.882,1.118,1.118,0,0,1-.939,1.094H20.913a1.235,1.235,0,0,0,0,2.47h8.926a1,1,0,0,1,.46.882,1.118,1.118,0,0,1-.938,1.094H23.383a1.235,1.235,0,0,0,0,2.47h.644a1.172,1.172,0,0,1,1.085,1.129,1.118,1.118,0,0,1-.938,1.094H18.69a1.235,1.235,0,0,0,0,2.47h7.066a1.172,1.172,0,0,1,1.085,1.129,1.118,1.118,0,0,1-.939,1.094H24.371a1.235,1.235,0,0,0,0,2.47h2.215c.255,0,.241-.415.255-.494.494-2.717,2.272-3.938,4.386-3.857,2.052.079,3.395,1.944,3.077,4.208M40.56,1.408c1.933.018,3.279,1.555,3.584,3.752H35.393C36.6,2.934,38.6,1.39,40.56,1.408M29.979,18.744H28.148a1.225,1.225,0,0,1-1.307-1.111,1.225,1.225,0,0,1,1.307-1.111h1.831a1.225,1.225,0,0,1,1.308,1.111,1.225,1.225,0,0,1-1.308,1.111M44.966,9.565a1.78,1.78,0,0,1-1,1.3c-1.449,2.458-3.787,4.107-6.11,4.034-2.213-.069-3.842-1.681-4.416-4.011a1.016,1.016,0,0,1-.485-1.136,1.7,1.7,0,0,1,1.407-1.406.948.948,0,0,1,.969,1.224,1.8,1.8,0,0,1-.792,1.184,3.654,3.654,0,0,0,3.439,3.157c1.784.016,3.608-1.291,4.82-3.236a1.124,1.124,0,0,1-.21-.923A1.7,1.7,0,0,1,44,8.341a.947.947,0,0,1,.969,1.224" transform="translate(-10.824 1087.792)" fill="#df2526"/>
      <path id="Trazado_1618" data-name="Trazado 1618" d="M109.416,93.409a3.292,3.292,0,0,0-3.408,2.922,2.918,2.918,0,0,0,2.635,3.36,3.292,3.292,0,0,0,3.408-2.922,2.918,2.918,0,0,0-2.635-3.36m.789,3.226a1.28,1.28,0,0,1-1.326,1.137,1.135,1.135,0,0,1-1.025-1.307,1.281,1.281,0,0,1,1.326-1.137,1.135,1.135,0,0,1,1.025,1.307" transform="translate(-78.055 1016.86)" fill="#df2526"/>
      <path id="Trazado_1614" data-name="Trazado 1614" d="M7.657,59.642a1.239,1.239,0,0,0-1.235-1.235H1.235a1.235,1.235,0,1,0,0,2.47H6.422a1.239,1.239,0,0,0,1.235-1.235" transform="translate(2.432 1043.436)" fill="#df2526"/>
      <path id="Trazado_1615" data-name="Trazado 1615" d="M24.85,22.889h1.729a1.235,1.235,0,1,0,0-2.47H24.85a1.235,1.235,0,1,0,0,2.47" transform="translate(-15.502 1072.286)" fill="#df2526"/>
    </g>
    <path id="Trazado_1619" data-name="Trazado 1619" d="M14.053-.887C22.061-.887,29,6.137,29,13.708S20.983,28.842,12.975,28.842,1.435,26.971.771,13.708,6.044-.887,14.053-.887Z" transform="translate(29 1090.292)" fill="#fff"/>
    <rect id="Rectángulo_923" data-name="Rectángulo 923" width="22" height="7" transform="translate(12 1111)" fill="#fff"/>
  </g>
</svg>
