<svg xmlns="http://www.w3.org/2000/svg" width="25.135" height="22.034" viewBox="0 0 25.135 22.034">
  <path id="Icon_map-food" data-name="Icon map-food" d="M25.68,8.235,23.619,24.387h-6.96L14.607,8.154h8.5l1.679-5.8.952.287L24.124,8.223ZM13.623,17.58s.26-2.095-3.349-2.095H4.527c-3.6,0-3.349,2.095-3.349,2.095ZM1.178,22.293s-.255,2.095,3.349,2.095h5.748c3.609,0,3.349-2.095,3.349-2.095Zm11.905-1.047a1.2,1.2,0,0,0,1.068-1.309,1.2,1.2,0,0,0-1.068-1.31H1.668A1.2,1.2,0,0,0,.6,19.937a1.207,1.207,0,0,0,1.068,1.309H13.083Z" transform="translate(-0.6 -2.354)"/>
</svg>
