<svg xmlns="http://www.w3.org/2000/svg" width="21.615" height="17.292" viewBox="0 0 21.615 17.292">
  <path id="Icon_awesome-car-alt" data-name="Icon awesome-car-alt" d="M19.753,10.429l-.506-1.265-.9-2.244a5.019,5.019,0,0,0-4.683-3.17H7.948A5.019,5.019,0,0,0,3.265,6.92l-.9,2.244-.506,1.265A2.876,2.876,0,0,0,0,13.117v2.162a2.859,2.859,0,0,0,.721,1.888V19.6a1.441,1.441,0,0,0,1.441,1.441H3.6A1.441,1.441,0,0,0,5.044,19.6V18.16H16.572V19.6a1.441,1.441,0,0,0,1.441,1.441h1.441A1.441,1.441,0,0,0,20.895,19.6V17.166a2.857,2.857,0,0,0,.721-1.888V13.117A2.876,2.876,0,0,0,19.753,10.429ZM5.941,7.991A2.162,2.162,0,0,1,7.948,6.632h5.719a2.162,2.162,0,0,1,2.007,1.359l.9,2.244H5.044l.9-2.244ZM3.6,15.269a1.359,1.359,0,0,1-1.441-1.436A1.359,1.359,0,0,1,3.6,12.4a2.772,2.772,0,0,1,2.162,2.155C5.764,15.413,4.467,15.269,3.6,15.269Zm14.41,0c-.865,0-2.161.144-2.161-.718A2.772,2.772,0,0,1,18.013,12.4a1.359,1.359,0,0,1,1.441,1.436A1.359,1.359,0,0,1,18.013,15.269Z" transform="translate(0 -3.75)"/>
</svg>
